<?xml version="1.0" standalone="no"?>
<!DOCTYPE svg PUBLIC "-//W3C//DTD SVG 20010904//EN"
 "http://www.w3.org/TR/2001/REC-SVG-20010904/DTD/svg10.dtd">
<svg version="1.0" xmlns="http://www.w3.org/2000/svg"
 width="560.000000pt" height="560.000000pt" viewBox="0 0 560.000000 560.000000"
 preserveAspectRatio="xMidYMid meet">
<metadata>
Created by potrace 1.14, written by Peter Selinger 2001-2017
</metadata>
<g transform="translate(0.000000,560.000000) scale(0.100000,-0.100000)"
fill="#000000" stroke="none">
<path d="M1982 5490 c-101 -27 -182 -72 -266 -150 -71 -67 -71 -67 -142 -73
-248 -23 -483 -186 -586 -406 l-31 -68 -72 -11 c-138 -22 -260 -85 -356 -184
-59 -62 -122 -183 -139 -265 -17 -79 -8 -224 18 -290 l20 -52 -53 -30 c-112
-63 -225 -192 -285 -325 -108 -239 -65 -539 105 -733 l46 -52 -58 -59 c-148
-151 -213 -368 -169 -566 21 -92 81 -216 134 -277 l39 -44 -15 -40 c-24 -61
-23 -263 2 -335 58 -172 169 -305 313 -377 45 -23 106 -47 136 -53 l54 -13 12
-52 c28 -125 130 -282 234 -361 104 -79 266 -143 363 -144 16 0 32 -18 60 -66
79 -135 219 -259 359 -317 166 -69 379 -76 555 -18 165 53 335 173 398 279
l27 47 0 2385 0 2385 -22 41 c-50 93 -192 185 -347 224 -102 26 -235 26 -334
0z m330 -180 c78 -24 180 -89 196 -125 9 -20 12 -590 12 -2353 l0 -2326 -68
-66 c-262 -257 -703 -229 -918 56 -24 33 -44 62 -44 66 0 4 14 15 31 23 40 21
106 81 141 129 33 46 36 93 8 128 -39 50 -110 38 -149 -25 -26 -43 -78 -83
-130 -102 -70 -24 -211 4 -310 62 -133 78 -211 198 -231 357 -11 90 -26 104
-126 123 -198 37 -345 166 -390 343 -21 82 -14 167 21 253 35 88 33 102 -23
156 -26 25 -62 67 -78 91 -146 214 -79 508 146 645 99 60 103 119 14 186 -299
227 -276 668 47 878 30 20 74 43 97 50 23 8 50 23 59 33 25 28 22 87 -6 127
-31 44 -61 141 -61 201 0 195 171 373 372 388 77 5 83 2 118 -74 23 -48 35
-60 71 -69 37 -9 84 17 97 55 14 39 -4 94 -54 163 l-36 49 33 66 c46 94 143
188 244 238 72 35 86 39 149 37 118 -5 221 -52 262 -122 33 -56 101 -65 144
-19 44 48 18 112 -83 203 l-62 56 40 35 c50 43 145 90 210 103 68 14 177 6
257 -19z"/>
<path d="M1994 4754 c-57 -20 -118 -75 -145 -132 -19 -39 -24 -68 -27 -167 -5
-149 8 -221 52 -277 119 -157 354 -138 440 34 25 49 26 60 26 208 0 148 -1
159 -26 208 -58 116 -195 170 -320 126z m151 -189 c24 -23 25 -30 25 -144 0
-112 -2 -122 -24 -147 -31 -37 -84 -38 -121 -4 -24 23 -25 28 -25 151 0 126 0
128 26 148 37 29 89 27 119 -4z"/>
<path d="M1309 4407 c-90 -34 -145 -90 -169 -172 -19 -64 -9 -321 13 -366 97
-194 366 -197 470 -4 20 36 22 55 22 205 0 142 -3 170 -19 200 -26 49 -74 98
-121 122 -49 26 -147 33 -196 15z m142 -193 c22 -23 24 -36 27 -130 5 -125 -6
-160 -55 -180 -28 -12 -38 -12 -68 0 -46 20 -55 46 -55 167 0 100 13 151 42
162 36 15 85 6 109 -19z"/>
<path d="M1982 3875 c-55 -24 -98 -63 -128 -117 -29 -52 -29 -56 -29 -208 0
-136 3 -160 21 -200 81 -174 306 -208 432 -65 53 61 62 99 62 271 0 129 -3
153 -21 190 -23 49 -86 110 -135 130 -43 18 -159 17 -202 -1z m159 -184 c29
-29 29 -30 29 -149 0 -116 -1 -120 -26 -146 -35 -35 -86 -35 -119 -1 -24 23
-25 30 -25 148 0 127 4 143 45 165 34 19 65 13 96 -17z"/>
<path d="M630 3705 c-61 -19 -113 -65 -144 -127 -25 -49 -26 -60 -26 -207 0
-143 2 -160 24 -206 100 -212 416 -185 482 41 25 88 17 302 -15 366 -57 118
-191 173 -321 133z m147 -187 c22 -20 23 -29 23 -144 0 -67 -3 -130 -6 -139
-10 -25 -62 -48 -93 -40 -14 4 -36 16 -48 27 -21 20 -23 30 -23 143 0 109 2
125 21 149 27 34 91 37 126 4z"/>
<path d="M1275 3516 c-60 -28 -97 -66 -124 -126 -18 -38 -21 -66 -21 -185 0
-160 8 -197 53 -257 75 -99 207 -130 320 -74 115 56 147 126 147 321 0 147
-12 199 -60 257 -70 85 -210 114 -315 64z m179 -176 c19 -19 21 -33 21 -146 0
-125 0 -126 -28 -150 -39 -33 -81 -31 -118 5 -29 29 -29 31 -29 146 l0 117 30
30 c27 26 36 30 67 25 20 -4 46 -16 57 -27z"/>
<path d="M1994 3004 c-57 -20 -118 -75 -145 -132 -19 -39 -24 -68 -27 -167 -5
-149 8 -221 52 -277 119 -157 354 -138 440 34 25 49 26 60 26 208 0 148 -1
159 -26 208 -58 116 -195 170 -320 126z m151 -189 c24 -23 25 -30 25 -144 0
-112 -2 -122 -24 -147 -31 -37 -84 -38 -121 -4 -24 23 -25 28 -25 151 0 126 0
128 26 148 37 29 89 27 119 -4z"/>
<path d="M655 2815 c-25 -24 -25 -25 -25 -225 0 -203 4 -230 39 -257 27 -21
79 -15 106 12 25 24 25 24 25 235 0 211 0 211 -25 235 -33 34 -87 34 -120 0z"/>
<path d="M1309 2657 c-90 -34 -145 -90 -169 -172 -19 -64 -9 -321 13 -366 97
-194 366 -197 470 -4 20 36 22 55 22 205 0 142 -3 170 -19 200 -26 49 -74 98
-121 122 -49 26 -147 33 -196 15z m142 -193 c22 -23 24 -36 27 -130 5 -125 -6
-160 -55 -180 -28 -12 -38 -12 -68 0 -46 20 -55 46 -55 167 0 100 13 151 42
162 36 15 85 6 109 -19z"/>
<path d="M603 2119 c-49 -24 -109 -87 -129 -135 -20 -48 -20 -331 0 -379 42
-101 133 -159 245 -159 105 1 180 46 229 139 26 48 27 56 27 210 0 158 0 161
-29 213 -50 90 -124 132 -233 132 -49 0 -80 -6 -110 -21z m172 -174 c24 -23
25 -29 25 -154 0 -128 0 -130 -26 -150 -37 -29 -89 -27 -119 4 -24 23 -25 30
-25 150 0 120 1 127 25 150 16 17 35 25 60 25 25 0 44 -8 60 -25z"/>
<path d="M1982 2125 c-55 -24 -98 -63 -128 -117 -29 -52 -29 -56 -29 -208 0
-136 3 -160 21 -200 81 -174 306 -208 432 -65 53 61 62 99 62 271 0 129 -3
153 -21 190 -23 49 -86 110 -135 130 -43 18 -159 17 -202 -1z m159 -184 c29
-29 29 -30 29 -149 0 -116 -1 -120 -26 -146 -35 -35 -86 -35 -119 -1 -24 23
-25 30 -25 148 0 127 4 143 45 165 34 19 65 13 96 -17z"/>
<path d="M1339 1777 c-36 -28 -39 -51 -39 -332 0 -305 3 -324 61 -344 23 -8
38 -7 64 3 52 22 57 52 53 363 l-3 271 -24 26 c-27 29 -83 35 -112 13z"/>
<path d="M2045 1258 c-44 -25 -44 -30 -45 -341 l0 -298 25 -24 c27 -27 79 -33
106 -12 36 28 39 51 39 342 l0 287 -29 29 c-31 30 -63 36 -96 17z"/>
<path d="M3280 5489 c-152 -39 -294 -131 -343 -223 l-22 -41 0 -2385 0 -2385
27 -47 c63 -106 233 -226 398 -280 132 -43 303 -50 433 -19 203 48 372 173
478 351 30 52 47 70 63 70 97 1 259 65 363 144 105 80 208 238 233 361 l11 52
55 12 c197 45 371 208 445 418 30 86 36 229 12 319 l-19 71 38 43 c52 58 115
189 133 275 44 210 -22 425 -178 578 l-48 47 45 53 c171 195 214 494 105 735
-58 130 -174 261 -285 323 l-52 30 20 52 c26 66 35 211 18 290 -17 85 -80 203
-142 266 -99 102 -214 161 -354 183 l-73 11 -20 48 c-46 112 -168 253 -275
318 -104 63 -254 110 -350 111 -33 0 -47 9 -111 68 -40 37 -100 83 -133 100
-133 71 -319 91 -472 51z m256 -160 c72 -13 165 -57 219 -103 l39 -35 -67 -62
c-37 -34 -74 -74 -82 -90 -58 -111 86 -195 149 -88 41 70 144 117 262 122 63
2 77 -2 149 -37 101 -50 198 -144 244 -238 l33 -66 -36 -49 c-50 -69 -68 -124
-54 -163 13 -38 60 -64 97 -55 30 8 61 33 61 50 0 6 12 30 27 53 26 40 30 42
78 42 111 0 245 -70 317 -165 44 -58 78 -156 78 -225 0 -58 -29 -157 -59 -198
-28 -39 -35 -81 -19 -111 14 -27 15 -27 111 -71 78 -36 179 -125 228 -201 150
-235 97 -540 -124 -707 -90 -68 -86 -127 13 -187 165 -100 253 -295 216 -474
-20 -94 -64 -175 -137 -249 -36 -38 -59 -69 -59 -83 0 -12 11 -51 25 -86 106
-264 -64 -539 -369 -596 -100 -19 -115 -33 -126 -123 -11 -84 -31 -144 -70
-204 -82 -128 -237 -216 -393 -222 -82 -4 -147 28 -199 98 -40 53 -76 74 -114
66 -55 -10 -82 -91 -48 -142 32 -47 109 -122 147 -141 20 -11 37 -22 37 -25 0
-14 -65 -97 -112 -143 -69 -68 -187 -127 -297 -148 -143 -28 -320 5 -449 85
-66 41 -115 82 -149 126 l-23 29 0 2323 c0 1698 3 2330 11 2348 24 51 141 117
252 141 78 17 118 18 193 4z"/>
<path d="M3430 4755 c-61 -19 -113 -65 -144 -127 -25 -49 -26 -60 -26 -208 0
-148 1 -159 26 -208 86 -172 321 -191 440 -34 44 56 57 128 52 277 -3 99 -8
128 -27 167 -57 118 -191 173 -321 133z m145 -190 c24 -23 25 -30 25 -148 0
-119 -1 -124 -25 -147 -37 -34 -90 -33 -121 4 -22 25 -24 35 -24 147 0 114 1
121 25 144 33 34 87 34 120 0z"/>
<path d="M4140 4411 c-71 -23 -131 -74 -166 -141 -16 -30 -19 -58 -19 -200 0
-150 2 -169 22 -205 106 -196 374 -191 469 10 22 45 24 64 24 191 0 198 -26
262 -131 319 -55 29 -151 42 -199 26z m115 -177 c32 -13 45 -59 45 -163 0 -55
-4 -111 -10 -126 -14 -36 -68 -58 -109 -44 -49 17 -61 53 -61 173 0 98 2 106
26 135 26 31 68 41 109 25z"/>
<path d="M3403 3869 c-49 -24 -109 -87 -129 -135 -10 -24 -14 -78 -14 -189 0
-179 11 -217 82 -281 54 -49 101 -67 173 -67 105 -1 195 57 239 153 18 40 21
64 21 200 0 152 0 156 -29 208 -50 90 -124 132 -233 132 -49 0 -80 -6 -110
-21z m156 -164 c16 -8 31 -22 35 -30 3 -9 6 -70 6 -136 0 -114 -1 -121 -25
-144 -33 -34 -84 -34 -119 1 -25 26 -26 30 -26 146 0 119 0 120 29 149 33 32
58 36 100 14z"/>
<path d="M4810 3709 c-85 -25 -169 -119 -184 -206 -12 -74 -6 -248 10 -302 31
-106 134 -181 249 -181 105 1 187 52 231 145 22 46 24 63 24 205 0 173 -9 208
-70 268 -66 66 -174 96 -260 71z m135 -194 c24 -23 25 -30 25 -144 0 -112 -2
-122 -24 -147 -31 -37 -84 -38 -121 -4 -24 23 -25 28 -25 151 0 126 0 128 26
148 37 29 89 27 119 -4z"/>
<path d="M4092 3514 c-110 -55 -142 -127 -142 -319 0 -195 32 -265 147 -321
113 -56 245 -25 320 74 45 60 53 97 53 257 0 153 -12 199 -68 259 -72 77 -211
99 -310 50z m179 -173 c29 -29 29 -31 29 -146 0 -115 0 -117 -29 -146 -37 -36
-79 -38 -118 -5 -27 24 -28 27 -31 138 -3 123 5 154 48 175 40 20 69 15 101
-16z"/>
<path d="M3430 3005 c-61 -19 -113 -65 -144 -127 -25 -49 -26 -60 -26 -208 0
-148 1 -159 26 -208 86 -172 321 -191 440 -34 44 56 57 128 52 277 -3 99 -8
128 -27 167 -57 118 -191 173 -321 133z m145 -190 c24 -23 25 -30 25 -148 0
-119 -1 -124 -25 -147 -37 -34 -90 -33 -121 4 -22 25 -24 35 -24 147 0 114 1
121 25 144 33 34 87 34 120 0z"/>
<path d="M4825 2815 c-25 -24 -25 -24 -25 -235 0 -211 0 -211 25 -235 27 -27
79 -33 106 -12 35 27 39 54 39 257 0 200 0 201 -25 225 -33 34 -87 34 -120 0z"/>
<path d="M4140 2661 c-71 -23 -131 -74 -166 -141 -16 -30 -19 -58 -19 -200 0
-150 2 -169 22 -205 106 -196 374 -191 469 10 22 45 24 64 24 191 0 198 -26
262 -131 319 -55 29 -151 42 -199 26z m115 -177 c32 -13 45 -59 45 -163 0 -55
-4 -111 -10 -126 -14 -36 -68 -58 -109 -44 -49 17 -61 53 -61 173 0 98 2 106
26 135 26 31 68 41 109 25z"/>
<path d="M3403 2119 c-49 -24 -109 -87 -129 -135 -10 -24 -14 -78 -14 -189 0
-179 11 -217 82 -281 54 -49 101 -67 173 -67 105 -1 195 57 239 153 18 40 21
64 21 200 0 152 0 156 -29 208 -50 90 -124 132 -233 132 -49 0 -80 -6 -110
-21z m156 -164 c16 -8 31 -22 35 -30 3 -9 6 -70 6 -136 0 -114 -1 -121 -25
-144 -33 -34 -84 -34 -119 1 -25 26 -26 30 -26 146 0 119 0 120 29 149 33 32
58 36 100 14z"/>
<path d="M4782 2125 c-55 -24 -98 -63 -128 -117 -29 -52 -29 -56 -29 -208 0
-136 3 -160 21 -200 81 -174 306 -208 432 -65 53 61 62 99 62 271 0 129 -3
153 -21 190 -23 49 -86 110 -135 130 -43 18 -159 17 -202 -1z m159 -184 c29
-29 29 -30 29 -149 0 -116 -1 -120 -26 -146 -35 -35 -86 -35 -119 -1 -24 23
-25 30 -25 148 0 127 4 143 45 165 34 19 65 13 96 -17z"/>
<path d="M4149 1764 l-24 -26 -3 -271 c-4 -311 1 -341 53 -363 44 -18 90 -3
110 37 19 37 22 567 3 602 -28 54 -98 65 -139 21z"/>
<path d="M3459 1241 l-29 -29 0 -287 c0 -291 3 -314 39 -342 27 -21 79 -15
106 12 l25 24 0 298 c-1 313 -1 317 -47 341 -35 19 -63 14 -94 -17z"/>
</g>
</svg>
